<svg width="31.83" height="32" viewBox="0 0 250 251" fill="none" xmlns="http://www.w3.org/2000/svg">
<ellipse cx="125" cy="125.5" rx="125" ry="125.5" fill="#FFFDFF"/>
<mask id="mask0_1_20" style="mask-type:alpha" maskUnits="userSpaceOnUse" x="0" y="0" width="250" height="251">
<path d="M249.5 125.5C249.5 194.537 193.758 250.5 125 250.5C56.2424 250.5 0.5 194.537 0.5 125.5C0.5 56.4625 56.2424 0.5 125 0.5C193.758 0.5 249.5 56.4625 249.5 125.5Z" fill="#D9D9D9" stroke="black"/>
</mask>
<g mask="url(#mask0_1_20)">
<path d="M81.5 247.103C92.6477 243.037 97.9252 240.613 115.5 237.5C138.603 232.693 151.943 230.644 176.5 224.5C190.474 220.889 196.041 218.635 205.5 212.5C221.912 200.962 228.486 194.87 234.5 187L185.5 262L81.5 247.103Z" fill="#005D6C"/>
<path d="M25.5 47L106 64.5C163.613 79.9912 195.131 89.3241 249.5 107.5V110.5L213 108L98 90.5L6.5 81L25.5 47Z" fill="#005D6C"/>
<path d="M-3 105.5C33.3207 102.941 53.0649 102.07 85 103.5C106.845 105.248 135.935 111.019 192 122.5H250.5V126C231.579 131.685 220.877 134.644 201 138C156.127 135.957 132.921 134.585 90.5 131C54.2765 133.901 34.1503 135.393 -1.5 141L-3 105.5Z" fill="#005D6C"/>
<path d="M1.5 162.5C31.5038 155.235 49.1804 152.234 82 148.5C112.191 147.705 128.842 148.647 158 153C178.266 153.911 187.873 153.585 205 153C221.171 149.14 231.901 144.709 252 135.5V140.5C223.778 157.834 210.022 165.667 195.5 170.5C183.936 173.109 156.557 173.92 96 175C63.4922 179.444 46.4735 184.036 18 195.5L1.5 162.5Z" fill="#005D6C"/>
<path d="M33.5 212.5C57.7587 203.208 71.599 198.314 98.5 192.5C113.353 190.073 126.458 189.253 160.5 189C173.708 188.762 181.256 188.026 195 185.5C215.746 177.695 228.299 169.365 247.5 155L246 161.5C216.597 190.617 200.794 205.412 183 208.5C151.657 212.031 134.967 214.271 106 218.5C87.244 225.83 77.1694 229.439 59.5 238L33.5 212.5Z" fill="#005D6C"/>
<path d="M146.5 0L241 24.5L236 68L146.5 0Z" fill="#005D6C"/>
<path d="M219 70L244.5 88.5L247 95.5C175.638 63.6781 131.596 46.0696 52.5 23L90 0.5C142.333 26.1256 170.576 41.3437 219 70Z" fill="#005D6C"/>
</g>
</svg>
